<svg xmlns="http://www.w3.org/2000/svg" xmlns:xlink="http://www.w3.org/1999/xlink" width="200" zoomAndPan="magnify" viewBox="0 0 150 149.999998" height="200" preserveAspectRatio="xMidYMid meet" version="1.0"><defs><g/><clipPath id="e07c320ab8"><path d="M 75.738281 25.183594 L 111.804688 25.183594 L 111.804688 102.488281 L 75.738281 102.488281 Z M 75.738281 25.183594 " clip-rule="nonzero"/></clipPath><clipPath id="f81434849c"><path d="M 38.078125 25 L 75 25 L 75 102.488281 L 38.078125 102.488281 Z M 38.078125 25 " clip-rule="nonzero"/></clipPath><clipPath id="59adba21d3"><path d="M 68 10.332031 L 82 10.332031 L 82 24 L 68 24 Z M 68 10.332031 " clip-rule="nonzero"/></clipPath></defs><path fill="#eb2c27" d="M 96.878906 37.507812 C 99.34375 39.578125 99.660156 43.25 97.59375 45.714844 C 95.523438 48.175781 91.847656 48.496094 89.386719 46.425781 C 86.925781 44.355469 86.605469 40.683594 88.675781 38.222656 C 90.742188 35.757812 94.417969 35.441406 96.878906 37.507812 " fill-opacity="1" fill-rule="nonzero"/><path fill="#eb2c27" d="M 103.65625 43.433594 C 103.726562 43.585938 103.710938 43.773438 103.59375 43.910156 C 103.480469 44.046875 103.300781 44.09375 103.136719 44.050781 L 103.097656 44.097656 L 101.8125 46.863281 L 100.316406 45.605469 L 102.816406 43.863281 L 102.859375 43.8125 C 102.785156 43.664062 102.804688 43.476562 102.917969 43.339844 C 103.03125 43.203125 103.214844 43.15625 103.375 43.199219 L 105.480469 40.691406 L 103.964844 37.984375 L 104.695312 40.429688 L 102.960938 39.847656 L 100.246094 43.082031 C 100.621094 40.671875 99.765625 38.132812 97.765625 36.453125 C 95.800781 34.800781 93.207031 34.386719 90.925781 35.117188 L 93.578125 31.960938 L 91.453125 28.039062 L 101.835938 31.664062 L 107.191406 41.265625 L 105.855469 40.816406 L 103.65625 43.433594 " fill-opacity="1" fill-rule="nonzero"/><g clip-path="url(#e07c320ab8)"><path fill="#eb2c27" d="M 89.113281 91.355469 C 89.113281 91.355469 79.847656 88.808594 79.777344 71.960938 C 79.746094 64.773438 81.035156 59.03125 78.789062 48.617188 C 76.546875 38.203125 75.042969 31.460938 76.1875 25.277344 C 76.1875 25.277344 78.25 39.054688 89.113281 45.566406 C 102.765625 53.886719 109.511719 52.773438 109.511719 52.773438 L 110.003906 91.597656 Z M 89.113281 91.355469 " fill-opacity="1" fill-rule="nonzero"/></g><g clip-path="url(#f81434849c)"><path fill="#eb2c27" d="M 60.554688 47.90625 C 60.554688 47.90625 60.777344 60.554688 61.082031 62.625 C 62.039062 67.460938 63.8125 70.375 64.632812 71.460938 C 66.460938 74.089844 68.273438 76.101562 68.273438 76.101562 C 67.617188 72.59375 66.800781 70.121094 65.894531 66.207031 C 65.265625 63.726562 64.476562 59.28125 64.476562 59.28125 C 63.828125 55.664062 63.058594 52.480469 62.390625 50.488281 C 62.027344 49.203125 61.480469 48.285156 60.554688 47.90625 Z M 60.554688 47.90625 " fill-opacity="1" fill-rule="nonzero"/></g><path fill="#2d2d2d" d="M 65.023438 52.960938 C 65.023438 52.960938 67.589844 60.453125 68.054688 62.296875 C 68.46875 63.890625 70.375 72.914062 71.28125 76.351562 C 72.183594 79.785156 72.429688 83.652344 72.429688 83.652344 L 72.894531 91.652344 L 67.679688 91.652344 L 67.214844 83.652344 C 67.214844 83.652344 67.847656 80.589844 67.050781 76.46875 C 66.253906 72.34375 63.589844 63.484375 63.171875 62.023438 C 62.753906 60.5625 62.457031 52.960938 62.457031 52.960938 L 65.023438 52.960938 Z M 65.023438 52.960938 " fill-opacity="1" fill-rule="nonzero"/><path fill="#eb2c27" d="M 93.621094 91.355469 C 93.621094 91.355469 102.886719 88.808594 102.957031 71.960938 C 102.984375 64.773438 101.695312 59.03125 103.941406 48.617188 C 106.1875 38.203125 107.691406 31.460938 106.546875 25.277344 C 106.546875 25.277344 104.484375 39.054688 93.621094 45.566406 C 79.96875 53.886719 73.222656 52.773438 73.222656 52.773438 L 72.730469 91.597656 Z M 93.621094 91.355469 " fill-opacity="1" fill-rule="nonzero"/><path fill="#eb2c27" d="M 121.457031 61.707031 C 121.457031 61.707031 117.433594 70.722656 113.476562 73.378906 C 109.519531 76.035156 102.636719 71.808594 100.75 70.84375 C 98.863281 69.875 94.804688 70.917969 90.75 71.84375 C 86.695312 72.773438 84.625 71.5 84.625 71.5 L 86.945312 62.636719 C 86.945312 62.636719 90.527344 65.183594 93.625 65.699219 C 96.722656 66.21875 102.320312 61.777344 105.085938 59.667969 C 107.847656 57.558594 110.6875 53.5 110.6875 53.5 L 112.832031 61.085938 C 112.832031 61.085938 110.558594 63.988281 108.195312 66.09375 C 105.832031 68.199219 101.6875 72.699219 101.6875 72.699219 L 100.125 61.925781 C 100.125 61.925781 101.25 60.0625 102.75 58.894531 C 104.253906 57.726562 109.421875 54.242188 114.8125 52.238281 C 120.207031 50.234375 123.53125 50.058594 125.355469 50.222656 C 127.179688 50.386719 121.457031 61.707031 121.457031 61.707031 Z M 121.457031 61.707031 " fill-opacity="1" fill-rule="nonzero"/><g clip-path="url(#59adba21d3)"><path fill="#2d2d2d" d="M 72.949219 42.738281 L 94.28125 42.738281 L 94.28125 59.175781 L 72.949219 59.175781 Z M 72.949219 42.738281 " fill-opacity="1" fill-rule="nonzero"/></g></svg>
