<?xml version="1.0" standalone="no"?>
<!DOCTYPE svg PUBLIC "-//W3C//DTD SVG 20010904//EN"
 "http://www.w3.org/TR/2001/REC-SVG-20010904/DTD/svg10.dtd">
<svg version="1.0" xmlns="http://www.w3.org/2000/svg"
 width="600.000000pt" height="600.000000pt" viewBox="0 0 600.000000 600.000000"
 preserveAspectRatio="xMidYMid meet">
<metadata>
Created by potrace 1.16, written by Peter Selinger 2001-2019
</metadata>
<g transform="translate(0.000000,600.000000) scale(0.100000,-0.100000)"
fill="#000000" stroke="none">
<path d="M295 5916 c-39 -18 -80 -62 -99 -108 -14 -33 -16 -238 -16 -1897 l0
-1860 22 -15 c31 -22 64 -20 88 4 20 20 20 33 20 1855 0 1323 3 1841 11 1858
6 14 22 30 36 36 17 8 430 11 1463 11 l1439 0 28 -24 28 -24 3 -563 c3 -624 0
-599 67 -599 68 0 65 -26 65 609 0 493 -2 577 -15 609 -20 47 -50 79 -97 103
-36 18 -82 19 -1525 19 -1221 -1 -1493 -3 -1518 -14z"/>
<path d="M1055 5486 l-25 -26 2 -671 c3 -651 4 -671 22 -685 15 -11 59 -14
191 -14 154 0 174 2 188 18 15 17 17 63 17 450 0 419 -1 433 -20 452 -11 11
-31 20 -45 20 -14 0 -34 -9 -45 -20 -19 -19 -20 -33 -20 -405 l0 -385 -75 0
-75 0 0 575 0 575 75 0 75 0 0 -88 c0 -100 12 -122 67 -122 55 0 63 21 63 171
0 101 -4 140 -14 155 -13 17 -30 19 -185 22 l-171 3 -25 -25z"/>
<path d="M2616 5338 c-22 -31 -20 -64 4 -88 19 -19 33 -20 263 -20 232 0 245
1 262 20 24 27 24 79 0 96 -15 11 -74 14 -266 14 -245 0 -248 0 -263 -22z"/>
<path d="M484 5206 c-18 -14 -19 -33 -22 -545 -2 -521 -2 -531 18 -551 19 -19
33 -20 193 -20 156 0 176 2 190 18 15 17 17 70 17 550 l0 531 -22 15 c-31 22
-344 23 -374 2z m264 -553 l-3 -428 -72 -3 -73 -3 0 431 0 430 75 0 75 0 -2
-427z"/>
<path d="M2199 5062 c-27 -23 -30 -75 -5 -100 15 -16 57 -17 476 -17 419 0
461 1 476 17 25 25 22 77 -5 100 -22 17 -51 18 -471 18 -420 0 -449 -1 -471
-18z"/>
<path d="M1642 4930 c-12 -5 -27 -22 -32 -36 -7 -17 -10 -164 -8 -401 3 -358
4 -375 22 -389 30 -22 358 -20 380 2 14 13 16 64 16 403 0 318 -3 391 -14 407
-13 17 -29 19 -178 21 -90 1 -173 -2 -186 -7z m248 -415 l0 -285 -23 -5 c-13
-4 -46 -5 -73 -3 l-49 3 -3 288 -2 287 75 0 75 0 0 -285z"/>
<path d="M2199 4780 c-34 -20 -31 -88 5 -112 6 -4 216 -8 467 -8 422 0 457 1
472 18 25 28 26 72 1 96 -14 14 -70 16 -472 16 -272 0 -464 -4 -473 -10z"/>
<path d="M3245 4500 c-222 -35 -462 -165 -601 -326 -198 -229 -274 -467 -244
-766 28 -284 157 -521 379 -696 225 -178 536 -251 811 -191 52 11 108 23 123
26 24 5 38 -4 100 -64 90 -88 126 -107 198 -107 46 -1 65 5 105 30 l49 31 240
-238 c133 -132 248 -239 257 -239 25 0 68 40 68 63 0 14 -77 98 -235 257 -129
130 -235 239 -235 242 0 4 26 31 58 62 l57 55 136 -135 c74 -73 143 -134 151
-134 25 0 68 40 68 62 0 14 -48 70 -136 159 l-136 137 28 41 c33 50 43 129 24
187 -8 24 -43 70 -92 121 -56 58 -78 88 -74 100 22 71 38 152 48 236 27 228
-47 490 -194 685 -27 35 -48 67 -48 71 0 5 -31 38 -68 73 -173 163 -402 255
-657 263 -66 2 -147 0 -180 -5z m291 -141 c365 -64 646 -330 719 -681 19 -90
19 -267 0 -358 -63 -298 -288 -551 -578 -651 -512 -175 -1061 157 -1148 695
-64 398 184 813 570 954 134 49 305 65 437 41z m813 -1385 c42 -47 55 -77 48
-106 -4 -13 -84 -101 -180 -195 -206 -205 -205 -205 -293 -122 -30 29 -54 55
-54 59 0 3 34 28 77 55 98 63 215 178 283 282 60 91 63 92 119 27z"/>
<path d="M3320 4240 c-248 -23 -474 -175 -575 -387 -65 -137 -80 -203 -80
-353 0 -153 18 -230 83 -354 44 -84 160 -209 245 -265 222 -145 511 -158 747
-35 130 68 260 195 260 255 0 29 -31 59 -61 59 -9 0 -47 -32 -85 -71 -89 -90
-157 -136 -264 -173 -73 -25 -100 -30 -190 -30 -120 0 -187 16 -291 70 -136
71 -244 200 -294 348 -133 396 159 806 575 808 177 1 314 -55 441 -182 83 -82
136 -174 164 -285 22 -85 19 -215 -6 -310 -23 -89 -17 -120 26 -131 41 -10 70
17 89 85 83 295 -19 615 -251 794 -32 24 -78 54 -103 67 -25 12 -52 29 -61 36
-20 18 -157 51 -234 57 -33 2 -94 1 -135 -3z"/>
<path d="M3362 3994 c-12 -8 -22 -24 -22 -34 0 -33 -12 -51 -49 -70 -80 -41
-131 -121 -131 -206 0 -135 78 -222 222 -245 69 -11 100 -29 116 -65 28 -61 5
-131 -53 -158 -68 -33 -150 11 -162 86 -7 48 -33 78 -66 78 -61 0 -75 -81 -29
-171 21 -43 38 -61 82 -87 44 -26 57 -40 65 -69 22 -77 107 -83 121 -8 5 29
16 42 60 70 125 80 157 234 70 348 -40 53 -94 83 -173 96 -71 11 -94 24 -117
62 -20 34 -20 71 -1 109 21 42 53 60 103 60 57 0 106 -45 115 -106 8 -51 26
-66 69 -62 24 2 36 10 46 30 28 59 -30 188 -100 224 -47 23 -68 44 -68 66 0
22 -43 68 -62 68 -8 0 -24 -7 -36 -16z"/>
<path d="M2980 3490 c-11 -11 -20 -33 -20 -49 0 -75 104 -95 130 -25 14 36 13
42 -15 69 -29 30 -68 32 -95 5z"/>
<path d="M1050 3200 c-478 -129 -720 -642 -515 -1088 142 -305 473 -487 807
-443 223 30 401 136 519 308 106 155 151 292 152 458 0 122 -13 190 -64 320
-80 205 -235 351 -456 428 -79 27 -103 31 -228 34 -116 3 -153 0 -215 -17z
m125 -232 c4 -61 4 -191 0 -289 -12 -279 -33 -234 237 -506 l231 -231 -44 -32
c-93 -67 -188 -99 -320 -107 -189 -11 -353 51 -488 186 -126 126 -191 280
-191 454 0 178 58 315 190 448 91 93 185 149 292 175 90 21 85 28 93 -98z
m283 81 c77 -25 193 -102 251 -164 58 -63 117 -157 137 -218 9 -29 20 -56 24
-62 4 -5 10 -29 14 -53 l6 -42 -287 2 -288 3 -3 284 -2 284 42 -7 c24 -4 71
-16 106 -27z m428 -711 c-9 -56 -45 -165 -60 -181 -6 -6 -25 -33 -41 -59 -17
-27 -35 -48 -40 -48 -6 0 -82 72 -170 160 l-159 160 179 3 c99 1 206 4 239 5
l59 2 -7 -42z"/>
<path d="M2220 2643 c-36 -13 -40 -34 -40 -200 0 -216 -13 -203 205 -203 218
0 205 -13 205 200 0 157 -1 161 -25 185 -24 24 -27 25 -177 24 -84 0 -160 -3
-168 -6z m245 -163 c4 -22 4 -58 0 -80 l-7 -41 -76 3 -77 3 -3 78 -3 77 80 0
79 0 7 -40z"/>
<path d="M3345 2385 l-25 -24 0 -400 0 -400 -24 -28 -24 -28 -1444 3 c-938 2
-1452 7 -1469 13 -41 16 -49 47 -49 199 0 127 -2 142 -20 160 -25 25 -72 26
-93 2 -14 -16 -17 -44 -17 -186 0 -117 4 -176 14 -199 17 -42 76 -93 123 -107
27 -8 467 -10 1508 -8 l1470 3 42 23 c24 12 55 41 70 64 l28 42 3 430 c3 430
3 431 -19 449 -29 23 -45 22 -74 -8z"/>
<path d="M2257 2072 c-34 -5 -62 -13 -67 -22 -5 -8 -10 -87 -10 -175 0 -220
-15 -205 205 -205 220 0 205 -14 205 201 0 205 6 197 -155 203 -66 2 -146 1
-178 -2z m203 -202 l0 -81 -77 3 -78 3 -3 78 -3 77 81 0 80 0 0 -80z"/>
<path d="M2800 2073 c-47 -18 -50 -28 -50 -200 0 -216 -13 -203 205 -203 218
0 205 -13 205 203 0 89 -4 167 -8 174 -16 25 -68 33 -200 32 -75 0 -144 -3
-152 -6z m234 -139 c8 -20 8 -92 0 -121 -6 -21 -12 -23 -79 -23 -84 0 -85 1
-85 103 l0 57 79 0 c63 0 80 -3 85 -16z"/>
</g>
</svg>
