<?xml version="1.0" standalone="no"?>
<!DOCTYPE svg PUBLIC "-//W3C//DTD SVG 20010904//EN"
 "http://www.w3.org/TR/2001/REC-SVG-20010904/DTD/svg10.dtd">
<svg version="1.0" xmlns="http://www.w3.org/2000/svg"
 width="600.000000pt" height="600.000000pt" viewBox="0 0 600.000000 600.000000"
 preserveAspectRatio="xMidYMid meet">
<metadata>
Created by potrace 1.16, written by Peter Selinger 2001-2019
</metadata>
<g transform="translate(0.000000,600.000000) scale(0.100000,-0.100000)"
fill="#000000" stroke="none">
<path d="M4149 5876 c-2 -2 -175 -50 -384 -105 -209 -56 -392 -106 -408 -112
-54 -22 -85 -93 -67 -158 13 -49 49 -82 99 -91 42 -7 74 0 429 94 l133 35 -22
-37 c-250 -413 -683 -875 -1144 -1218 -465 -345 -1026 -628 -1527 -770 -306
-86 -560 -129 -848 -145 -135 -7 -215 -16 -235 -25 -43 -20 -65 -62 -65 -122
0 -61 32 -106 85 -121 38 -10 341 2 495 20 319 37 714 139 1065 276 195 76
610 284 792 397 634 392 1169 894 1530 1434 52 79 97 142 98 140 2 -2 31 -106
65 -233 34 -126 68 -240 76 -252 24 -37 61 -55 113 -55 81 0 131 49 131 130 0
42 -212 840 -232 871 -20 33 -63 51 -120 51 -30 0 -57 -2 -59 -4z"/>
<path d="M3651 4395 c-51 -16 -107 -66 -128 -113 -12 -29 -14 -222 -13 -1298
l0 -1264 -129 0 -130 0 -3 828 c-3 782 -4 829 -22 864 -24 50 -86 104 -133
117 -50 14 -412 14 -467 0 -51 -13 -109 -57 -134 -102 -16 -29 -17 -100 -22
-867 l-5 -835 -132 -3 -133 -3 -2 605 -3 604 -30 43 c-20 29 -50 53 -85 71
-55 28 -56 28 -264 28 -229 0 -264 -6 -322 -53 -76 -63 -74 -40 -74 -699 l0
-588 -125 0 -125 0 0 413 c0 477 -1 488 -74 555 -24 22 -61 45 -82 51 -50 14
-437 14 -487 0 -47 -13 -102 -60 -130 -113 -22 -40 -22 -48 -22 -466 0 -234
-4 -431 -8 -437 -6 -9 -35 -13 -88 -13 -92 0 -131 -15 -154 -60 -19 -37 -19
-103 0 -140 33 -65 -137 -60 2202 -60 2042 0 2130 1 2162 18 98 52 88 184 -16
228 -18 8 -66 14 -108 14 l-75 0 0 1263 c0 1206 -1 1264 -19 1303 -23 51 -81
99 -137 113 -64 16 -428 13 -483 -4z m377 -1462 l2 -1213 -130 0 -130 0 0
1208 c0 665 3 1212 7 1216 4 3 61 5 127 4 l121 -3 3 -1212z m-1040 -435 l2
-778 -135 0 -135 0 0 764 c0 420 3 772 6 780 5 14 24 16 133 14 l126 -3 3
-777z m-1044 286 c4 -15 4 -260 0 -546 l-7 -519 -121 3 -121 3 -3 537 -2 537
117 4 c65 1 121 4 124 5 4 1 10 -10 13 -24z m-1049 -679 l0 -380 -122 -3 -123
-3 0 386 0 386 123 -3 122 -3 0 -380z"/>
</g>
</svg>
