<?xml version="1.0" standalone="no"?>
<!DOCTYPE svg PUBLIC "-//W3C//DTD SVG 20010904//EN"
 "http://www.w3.org/TR/2001/REC-SVG-20010904/DTD/svg10.dtd">
<svg version="1.0" xmlns="http://www.w3.org/2000/svg"
 width="600.000000pt" height="600.000000pt" viewBox="0 0 600.000000 600.000000"
 preserveAspectRatio="xMidYMid meet">
<metadata>
Created by potrace 1.16, written by Peter Selinger 2001-2019
</metadata>
<g transform="translate(0.000000,600.000000) scale(0.100000,-0.100000)"
fill="#000000" stroke="none">
<path d="M1058 5861 l-33 -29 -3 -1016 -2 -1016 -138 0 c-159 0 -192 -11 -229
-76 -42 -72 -32 -114 71 -287 49 -83 54 -97 32 -97 -23 0 -78 -51 -92 -87 -15
-35 -18 -213 -5 -247 7 -17 -6 -28 -81 -75 -170 -107 -281 -229 -364 -396 -62
-127 -84 -221 -84 -365 0 -255 98 -475 291 -653 38 -36 89 -74 114 -86 l45
-21 1841 0 c1700 0 1844 1 1876 17 66 31 63 -13 63 991 0 905 0 909 -21 936
-23 29 -55 33 -85 12 -18 -14 -19 -38 -24 -918 l-5 -903 -1120 -3 c-616 -1
-1174 1 -1239 5 l-119 8 45 53 c78 91 169 289 184 399 5 41 3 51 -15 67 -23
21 -64 24 -86 6 -8 -7 -20 -31 -25 -54 -12 -44 -12 -46 -58 -148 -52 -114
-128 -212 -225 -290 l-49 -38 -449 0 c-371 0 -455 3 -478 14 -15 8 -67 56
-114 106 -149 156 -213 323 -204 525 12 278 192 527 478 665 l85 40 227 0 227
0 72 -34 c216 -103 377 -266 444 -451 10 -27 21 -52 24 -55 4 -3 11 -18 17
-35 24 -74 122 -61 123 16 0 37 -30 119 -85 233 -74 151 -191 266 -408 401
-14 9 -14 18 -5 65 14 74 4 192 -19 233 -11 18 -37 42 -60 55 l-41 22 69 122
c60 107 69 129 69 173 0 59 -25 106 -72 135 -28 17 -51 20 -145 20 l-113 0 0
974 0 973 312 8 c172 4 860 4 1529 0 l1216 -8 6 -1074 c5 -1001 7 -1076 23
-1094 17 -19 59 -25 80 -11 33 22 34 42 34 1155 l0 1105 -29 31 -29 31 -1606
0 -1606 0 -32 -29z m287 -2211 c5 -8 -101 -205 -147 -272 -19 -28 -20 -28
-138 -28 l-118 0 -85 147 c-47 81 -83 151 -81 155 8 12 562 10 569 -2z m-17
-523 l3 -77 -268 2 -268 3 -3 69 c-2 49 1 72 10 78 7 4 128 7 268 5 l255 -2 3
-78z"/>
<path d="M1377 5558 c-9 -7 -20 -27 -23 -45 -5 -26 -1 -37 19 -57 l26 -26 389
0 c379 0 390 1 416 21 32 25 35 70 6 99 -19 19 -33 20 -418 20 -303 0 -402 -3
-415 -12z"/>
<path d="M3507 5552 c-10 -10 -17 -35 -17 -55 0 -64 13 -67 266 -67 209 0 223
1 248 21 30 24 34 63 10 97 -15 22 -19 22 -253 22 -218 0 -239 -2 -254 -18z"/>
<path d="M3512 5324 c-16 -11 -22 -25 -22 -54 0 -67 11 -70 272 -70 215 0 229
1 248 20 11 11 20 33 20 50 0 17 -9 39 -20 50 -19 19 -33 20 -248 20 -190 0
-231 -3 -250 -16z"/>
<path d="M2793 5220 c-48 -19 -48 -20 -51 -612 l-3 -558 -49 0 -50 0 0 190 c0
177 -1 191 -20 210 -26 26 -81 26 -103 2 -15 -16 -17 -46 -17 -210 l0 -192
-40 0 -40 0 0 425 0 425 40 0 40 0 0 -110 c0 -97 2 -112 20 -130 26 -26 74
-26 101 1 19 19 20 30 17 174 -4 204 0 199 -173 203 l-125 4 -30 -30 -30 -30
0 -466 0 -466 -55 0 -55 0 0 359 0 358 -25 27 c-23 25 -27 26 -145 26 -68 0
-130 -5 -142 -11 -44 -24 -48 -57 -48 -419 l0 -340 -50 0 -49 0 -3 251 -3 251
-28 24 c-26 23 -36 24 -152 24 l-123 0 -26 -31 -26 -31 0 -279 c0 -285 3 -308
39 -336 21 -17 2516 -19 2574 -2 65 18 67 29 67 422 l0 344 -26 24 c-24 23
-32 24 -150 24 -122 0 -124 0 -151 -28 l-28 -28 1 -320 0 -320 -55 3 -56 3 4
447 3 447 -30 31 -30 30 -122 0 c-121 0 -122 0 -151 -30 l-30 -29 2 -448 1
-448 -53 -3 -54 -3 -2 563 c-2 390 -6 570 -14 584 -6 12 -22 27 -36 33 -28 13
-228 14 -260 1z m167 -650 l0 -520 -35 0 -35 0 0 520 0 520 35 0 35 0 0 -520z
m465 248 c3 -24 5 -207 3 -408 l-3 -365 -37 -3 -38 -3 0 410 0 411 34 0 c33 0
35 -2 41 -42z m-1395 -453 l0 -315 -35 0 -34 0 -3 158 c-2 86 -2 228 0 315 l3
157 35 0 34 0 0 -315z m1862 30 c1 -113 3 -238 3 -277 l0 -73 -44 -3 -44 -3 6
113 c4 62 7 188 7 281 l0 167 35 0 35 0 2 -205z m-2328 13 c8 -68 8 -286 0
-327 -6 -27 -10 -31 -40 -31 l-34 0 0 205 0 205 34 0 c33 0 33 -1 40 -52z"/>
<path d="M3240 3586 c-60 -17 -108 -38 -156 -69 -39 -24 -40 -24 -63 -6 -13
11 -35 19 -49 19 -57 0 -175 -177 -207 -311 -31 -132 -12 -282 52 -419 49
-104 167 -222 273 -274 180 -88 371 -86 559 6 189 92 331 313 331 515 0 67
-15 89 -64 95 -26 3 -30 9 -43 58 -49 193 -188 333 -383 385 -66 18 -188 18
-250 1z m283 -149 c104 -48 205 -165 222 -259 l7 -38 -177 0 -178 0 -124 122
c-68 67 -122 127 -120 132 2 5 15 19 29 29 71 53 240 60 341 14z m71 -425
l254 -3 -12 -52 c-20 -81 -63 -156 -130 -223 -156 -156 -364 -186 -568 -83
-244 123 -332 455 -182 682 l26 40 179 -179 179 -179 254 -3z"/>
<path d="M1830 3524 c-32 -14 -50 -38 -50 -69 0 -38 22 -60 69 -70 19 -4 196
-4 394 0 359 8 361 8 384 31 29 29 29 46 1 79 l-23 25 -380 5 c-209 3 -387 2
-395 -1z"/>
<path d="M1797 3252 c-18 -19 -22 -68 -9 -89 18 -29 66 -32 442 -26 l381 6 20
25 c25 32 24 48 -6 77 l-24 25 -394 0 c-369 0 -395 -1 -410 -18z"/>
<path d="M1897 3002 c-20 -22 -22 -71 -4 -96 12 -16 39 -17 361 -16 196 0 356
5 366 10 42 22 31 92 -16 110 -14 6 -172 10 -358 10 -310 0 -334 -1 -349 -18z"/>
<path d="M2130 2759 c-30 -12 -40 -27 -40 -61 0 -56 9 -58 274 -58 268 0 279
2 279 59 0 63 -9 66 -261 68 -137 2 -237 -2 -252 -8z"/>
<path d="M1015 2715 c-19 -18 -25 -35 -25 -70 0 -29 -4 -45 -12 -45 -35 0 -92
-25 -125 -53 -93 -82 -97 -216 -9 -303 49 -49 103 -64 231 -64 72 0 88 -3 105
-20 26 -26 25 -62 -1 -86 -18 -17 -42 -20 -186 -24 -148 -4 -166 -7 -179 -24
-21 -29 -17 -64 11 -91 21 -22 33 -25 95 -25 l70 0 0 -45 c0 -62 36 -100 83
-91 42 8 57 30 57 86 l0 45 51 12 c104 25 159 96 159 206 0 52 -5 71 -29 109
-42 65 -89 84 -227 92 -61 3 -118 8 -126 11 -21 8 -40 53 -33 76 13 39 55 49
213 49 165 0 182 6 182 66 0 54 -19 67 -106 73 l-79 6 -3 35 c-4 61 -11 76
-37 88 -38 17 -53 15 -80 -13z"/>
<path d="M2332 2230 c-106 -16 -172 -92 -172 -199 0 -95 57 -168 150 -191 32
-7 265 -10 785 -8 728 3 741 3 780 24 22 11 54 40 70 63 27 38 30 51 30 115 0
60 -4 78 -24 108 -35 50 -80 77 -147 88 -70 12 -1393 11 -1472 0z m976 -197
l3 -73 -484 0 c-475 0 -485 0 -511 21 -46 37 -30 107 29 122 11 3 232 4 490 3
l470 -1 3 -72z m521 53 c31 -28 28 -79 -6 -105 -25 -20 -37 -21 -202 -19
l-176 3 -3 64 c-2 44 1 67 10 73 7 5 90 7 184 6 153 -3 174 -5 193 -22z"/>
</g>
</svg>
