<?xml version="1.0" standalone="no"?>
<!DOCTYPE svg PUBLIC "-//W3C//DTD SVG 20010904//EN"
 "http://www.w3.org/TR/2001/REC-SVG-20010904/DTD/svg10.dtd">
<svg version="1.0" xmlns="http://www.w3.org/2000/svg"
 width="600.000000pt" height="600.000000pt" viewBox="0 0 600.000000 600.000000"
 preserveAspectRatio="xMidYMid meet">
<metadata>
Created by potrace 1.16, written by Peter Selinger 2001-2019
</metadata>
<g transform="translate(0.000000,600.000000) scale(0.100000,-0.100000)"
fill="#000000" stroke="none">
<path d="M2126 5894 c-21 -7 -77 -43 -125 -78 -125 -93 -134 -96 -281 -106
-151 -10 -213 -32 -279 -100 -45 -46 -70 -105 -96 -225 -10 -44 -24 -93 -32
-110 -9 -16 -60 -75 -114 -131 -120 -123 -143 -167 -144 -274 0 -71 3 -81 60
-200 l60 -125 -4 -90 c-3 -49 -5 -133 -5 -185 -1 -87 2 -99 28 -148 37 -67 83
-107 163 -143 l62 -29 -24 -52 c-12 -29 -80 -174 -149 -322 -132 -283 -143
-319 -106 -356 26 -26 53 -25 223 5 77 14 149 25 160 23 12 -2 46 -51 103
-148 47 -80 92 -151 101 -157 24 -18 67 -16 93 5 12 10 87 157 170 337 118
255 154 323 174 333 39 20 113 16 191 -10 l70 -23 110 -255 c95 -218 114 -256
136 -264 56 -19 72 -5 171 154 74 119 97 150 115 150 12 0 87 -13 166 -30 80
-16 156 -30 170 -30 26 0 67 40 67 65 0 8 -56 145 -125 305 -69 160 -125 293
-125 295 0 2 24 17 53 33 57 32 119 100 142 156 18 42 19 121 4 255 l-12 100
64 133 c62 131 63 134 64 218 0 111 -23 155 -145 275 -50 50 -98 102 -105 116
-8 14 -25 73 -40 130 -43 174 -78 230 -179 279 -56 28 -78 33 -188 40 -68 4
-140 15 -159 23 -19 8 -75 44 -125 81 -49 36 -109 73 -133 81 -55 19 -173 18
-225 -1z m160 -145 c16 -5 67 -39 115 -74 123 -92 157 -105 318 -119 205 -19
222 -33 266 -220 14 -60 38 -131 52 -158 14 -26 68 -88 120 -138 136 -132 139
-150 59 -315 -71 -144 -81 -202 -63 -350 23 -177 5 -208 -165 -282 -151 -65
-217 -128 -293 -277 -11 -22 -38 -53 -60 -69 -48 -35 -76 -33 -229 13 -132 40
-200 40 -337 -1 -177 -54 -204 -45 -300 99 -84 124 -128 166 -213 205 -248
113 -255 124 -225 346 15 113 2 181 -61 306 -54 109 -66 150 -56 191 4 15 53
75 110 133 57 58 113 125 125 149 12 24 35 95 50 157 16 63 36 127 46 141 27
42 87 61 231 72 152 12 173 20 305 118 115 85 146 96 205 73z m783 -2047 c51
-118 91 -216 88 -218 -2 -2 -61 8 -132 22 -92 19 -134 23 -149 16 -12 -5 -52
-60 -90 -121 -38 -62 -72 -108 -76 -104 -9 10 -120 263 -120 274 0 4 15 10 33
14 82 17 141 70 234 212 31 47 70 94 87 104 16 10 31 17 32 16 1 -1 43 -98 93
-215z m-1421 47 c80 -121 165 -179 259 -179 18 0 33 -3 33 -7 0 -3 -39 -91
-87 -194 l-88 -188 -64 110 c-39 68 -73 115 -88 122 -18 8 -50 6 -131 -6 -59
-10 -117 -20 -129 -23 -20 -6 -12 17 68 187 50 107 102 218 115 248 l24 54 18
-24 c10 -13 42 -58 70 -100z"/>
<path d="M2158 5468 c-244 -22 -461 -175 -574 -403 -53 -107 -74 -197 -74
-323 0 -124 22 -217 78 -332 39 -79 60 -109 132 -180 147 -147 287 -209 491
-218 141 -5 240 16 369 80 68 34 103 61 176 133 75 74 99 106 136 182 64 127
82 213 76 366 -6 145 -34 241 -103 353 -153 245 -410 370 -707 342z m170 -158
c314 -51 540 -365 479 -665 -34 -167 -134 -310 -279 -398 -84 -51 -145 -68
-257 -74 -166 -9 -300 39 -419 151 -122 116 -183 252 -185 411 -2 274 189 511
458 568 86 19 122 20 203 7z"/>
<path d="M2565 5041 c-11 -5 -121 -100 -244 -211 l-223 -203 -76 75 c-107 105
-135 117 -186 77 -19 -15 -26 -29 -26 -56 0 -33 12 -48 122 -160 114 -115 125
-123 160 -123 30 0 47 8 81 38 495 446 497 447 497 493 0 54 -55 91 -105 70z"/>
<path d="M357 4359 c-88 -13 -165 -75 -201 -160 -11 -26 -18 -162 -31 -599 -9
-311 -15 -637 -13 -725 5 -239 -4 -224 368 -600 164 -165 303 -310 309 -322 6
-12 11 -33 11 -47 0 -25 -2 -26 -58 -26 -74 0 -137 -31 -164 -80 -17 -31 -18
-53 -16 -190 3 -146 4 -157 27 -187 47 -63 45 -63 513 -63 539 0 659 6 700 34
68 46 73 63 72 219 -2 177 -17 222 -86 256 -26 12 -64 21 -91 21 l-47 0 0 298
c0 323 -8 390 -54 478 -34 66 -68 102 -226 237 -74 63 -182 163 -240 222 -58
59 -122 115 -142 126 -79 41 -182 34 -257 -17 l-36 -24 -6 437 c-5 406 -7 442
-26 499 -53 161 -160 234 -306 213z m96 -169 c14 -11 36 -41 49 -68 23 -47 23
-50 29 -517 7 -611 -9 -563 301 -879 154 -157 165 -166 200 -166 50 0 78 28
78 76 0 34 -13 49 -160 199 -148 150 -160 166 -160 199 0 48 36 86 81 86 27 0
51 -19 168 -133 75 -73 193 -181 262 -240 153 -130 174 -162 189 -298 6 -52
10 -197 8 -324 l-3 -230 -272 -3 -273 -2 0 72 0 73 -311 310 c-171 170 -321
328 -335 350 -45 76 -46 98 -25 787 13 434 23 653 31 667 14 27 68 61 96 61
12 0 33 -9 47 -20z m1265 -2562 l-3 -103 -488 -9 c-390 -7 -490 -6 -502 4 -13
10 -15 32 -13 104 l3 91 120 5 c66 4 292 7 503 8 l383 2 -3 -102z"/>
<path d="M3818 4356 c-99 -27 -158 -98 -191 -228 -19 -77 -21 -111 -21 -500
-1 -229 -4 -419 -8 -423 -4 -4 -22 4 -40 18 -63 47 -140 59 -222 35 -32 -9
-72 -43 -181 -148 -77 -76 -196 -185 -265 -244 -143 -122 -191 -182 -222 -275
-20 -61 -22 -90 -26 -388 l-4 -323 -50 0 c-61 0 -111 -22 -140 -63 -26 -36
-38 -157 -28 -280 6 -71 10 -81 41 -113 18 -19 49 -38 69 -43 19 -5 265 -12
547 -15 567 -7 552 -9 610 57 37 42 48 112 41 257 -3 70 -9 96 -25 118 -35 47
-81 72 -134 72 -70 0 -79 6 -79 53 0 40 6 46 303 346 328 331 347 356 373 483
14 65 14 130 0 608 -23 812 -24 818 -48 868 -47 99 -189 159 -300 128z m124
-165 c55 -21 55 -17 73 -679 10 -337 15 -643 13 -680 -7 -127 -25 -150 -359
-480 -163 -161 -304 -308 -313 -326 -9 -19 -16 -59 -16 -90 l0 -56 -276 0
-275 0 3 323 3 322 26 56 c23 48 51 77 205 211 99 86 216 194 261 241 94 97
123 110 176 80 37 -22 53 -58 43 -99 -5 -18 -65 -87 -167 -190 -102 -104 -159
-168 -159 -182 0 -34 11 -52 41 -68 47 -24 81 -1 251 176 285 294 278 273 278
819 0 223 4 434 9 468 21 143 80 193 183 154z m-374 -2467 c8 -2 12 -33 12
-109 l0 -105 -367 1 c-203 1 -431 4 -508 8 l-140 6 -3 94 c-1 52 0 101 2 108
5 11 90 12 498 7 271 -3 499 -7 506 -10z"/>
</g>
</svg>
