<?xml version="1.0" standalone="no"?>
<!DOCTYPE svg PUBLIC "-//W3C//DTD SVG 20010904//EN"
 "http://www.w3.org/TR/2001/REC-SVG-20010904/DTD/svg10.dtd">
<svg version="1.0" xmlns="http://www.w3.org/2000/svg"
 width="600.000000pt" height="600.000000pt" viewBox="0 0 600.000000 600.000000"
 preserveAspectRatio="xMidYMid meet">
<metadata>
Created by potrace 1.16, written by Peter Selinger 2001-2019
</metadata>
<g transform="translate(0.000000,600.000000) scale(0.100000,-0.100000)"
fill="#000000" stroke="none">
<path d="M3124 5879 c-17 -19 -19 -38 -19 -204 0 -232 -4 -225 137 -225 54 0
98 -3 98 -8 0 -4 -153 -160 -340 -347 l-340 -340 -20 21 c-12 11 -150 164
-308 340 -158 175 -300 325 -315 332 -22 11 -35 11 -56 2 -15 -6 -235 -219
-489 -473 -428 -429 -462 -465 -462 -497 0 -30 15 -48 134 -169 123 -124 137
-135 171 -135 34 0 54 18 353 317 l317 316 305 -341 c168 -187 314 -346 325
-354 11 -8 33 -14 49 -14 27 0 93 62 533 502 l503 503 0 -101 c0 -87 3 -105
21 -128 l20 -26 189 0 189 0 20 26 c21 26 21 36 21 496 0 468 -2 499 -34 520
-6 4 -230 8 -497 8 -481 0 -486 0 -505 -21z m876 -504 l0 -365 -70 0 -70 0 0
160 c0 157 -1 161 -25 185 -16 17 -35 25 -57 25 -30 0 -79 -47 -574 -541
l-541 -541 -304 340 c-169 189 -318 347 -336 356 -24 13 -38 14 -60 6 -15 -6
-166 -149 -335 -318 l-308 -307 -52 52 -52 52 152 158 c83 87 256 262 384 390
l233 231 313 -349 c200 -223 322 -351 337 -355 14 -3 35 -4 48 0 12 3 231 215
487 470 439 440 464 467 464 501 0 23 -8 43 -22 58 -21 21 -32 22 -187 25
l-165 3 0 65 0 64 370 0 370 0 0 -365z"/>
<path d="M3680 4703 c-8 -3 -23 -12 -32 -21 -17 -14 -18 -55 -18 -594 l0 -578
75 0 75 0 0 248 c0 137 3 371 7 520 l6 272 69 0 68 0 0 -520 0 -520 74 0 74 0
4 558 c5 603 4 613 -47 632 -27 10 -328 13 -355 3z"/>
<path d="M1864 4236 l-29 -24 -3 -616 -2 -616 80 0 80 0 0 560 0 560 70 0 70
0 0 -322 c0 -178 3 -462 7 -631 l6 -308 71 3 71 3 3 681 c2 659 1 682 -17 705
-19 23 -24 24 -199 27 -179 3 -180 3 -208 -22z"/>
<path d="M3055 4235 l-25 -24 0 -410 c0 -225 3 -416 6 -425 5 -12 21 -16 75
-16 l69 0 0 358 c0 196 4 362 8 368 8 13 114 25 130 15 8 -5 12 -101 14 -337
l3 -329 72 -3 72 -3 3 383 c3 408 1 430 -44 442 -13 3 -99 6 -191 6 -165 0
-168 0 -192 -25z"/>
<path d="M1335 4033 c-102 -7 -95 28 -95 -470 l0 -433 80 0 80 0 0 370 0 370
65 0 65 0 0 -370 0 -370 80 0 80 0 0 428 c0 347 -3 432 -14 447 -21 29 -149
39 -341 28z"/>
<path d="M2459 3941 c-27 -22 -26 18 -21 -713 l2 -388 70 0 70 0 0 434 c0 238
3 454 6 478 l6 46 58 6 c99 11 90 59 90 -485 l0 -479 70 0 70 0 0 531 c0 529
-2 560 -34 581 -6 4 -90 8 -187 8 -159 0 -179 -2 -200 -19z"/>
<path d="M3816 3344 c-36 -11 -66 -33 -111 -77 l-62 -62 -29 17 c-16 10 -58
25 -94 34 -75 19 -138 10 -218 -30 -83 -42 -116 -91 -227 -337 -87 -191 -104
-223 -121 -220 -10 3 -242 7 -514 10 l-495 6 -100 100 c-113 113 -179 154
-301 185 -129 33 -265 25 -385 -24 l-59 -24 0 28 c0 40 -20 89 -40 100 -10 6
-72 10 -138 10 l-120 0 -4 57 c-8 96 3 93 -364 93 l-314 0 0 -80 0 -80 260 0
260 0 0 -740 0 -740 -237 0 c-131 0 -248 -3 -260 -6 -21 -6 -23 -12 -23 -80
l0 -74 314 0 c382 0 359 -8 364 129 l4 91 114 0 c63 0 124 5 138 11 34 16 46
56 46 155 0 85 6 98 31 67 27 -33 210 -163 306 -217 146 -82 395 -177 501
-190 21 -3 80 -12 132 -20 516 -85 1065 64 1480 402 121 98 985 971 1009 1019
69 138 6 316 -136 383 -59 28 -168 31 -226 7 l-38 -16 -40 40 c-77 77 -199
106 -303 73z m159 -150 c19 -9 41 -27 51 -41 l17 -26 -354 -352 c-221 -219
-378 -367 -418 -393 -35 -23 -66 -40 -69 -38 -9 10 604 821 637 843 40 27 89
29 136 7z m-472 -85 c21 -5 40 -16 43 -24 3 -7 -87 -137 -201 -291 l-207 -278
-19 25 c-10 13 -19 28 -19 33 0 19 194 442 218 475 25 34 91 70 127 71 11 0
37 -5 58 -11z m865 -9 c64 -39 89 -118 58 -178 -17 -31 -915 -927 -991 -989
-286 -232 -688 -372 -1067 -373 -155 0 -443 42 -483 70 -5 4 -41 18 -80 30
-195 63 -427 201 -603 360 l-102 92 0 303 0 304 36 29 c78 64 232 97 343 73
97 -21 158 -58 270 -166 79 -76 116 -106 146 -114 27 -7 199 -11 518 -11 527
0 518 1 574 -63 77 -88 48 -233 -57 -287 -38 -19 -60 -20 -525 -20 l-485 0 0
-75 0 -76 508 3 c561 3 531 0 624 71 24 18 82 53 128 76 186 93 232 131 645
542 215 213 404 395 420 403 41 21 83 20 123 -4z m-3438 -755 l0 -555 -65 0
-65 0 0 555 0 555 65 0 65 0 0 -555z"/>
</g>
</svg>
