<svg xmlns="http://www.w3.org/2000/svg" xmlns:xlink="http://www.w3.org/1999/xlink" width="200" zoomAndPan="magnify" viewBox="0 0 150 149.999998" height="200" preserveAspectRatio="xMidYMid meet" version="1.0"><defs><clipPath id="82187cff38"><path d="M 76.117188 27.664062 L 130.78125 27.664062 L 130.78125 144.648438 L 76.117188 144.648438 Z M 76.117188 27.664062 " clip-rule="nonzero"/></clipPath><clipPath id="b9be04b204"><path d="M 19.03125 27 L 74 27 L 74 144.648438 L 19.03125 144.648438 Z M 19.03125 27 " clip-rule="nonzero"/></clipPath><clipPath id="5710abe9e1"><path d="M 64 5.148438 L 86 5.148438 L 86 26 L 64 26 Z M 64 5.148438 " clip-rule="nonzero"/></clipPath></defs><path fill="#eb2c27" d="M 108.167969 46.347656 C 111.898438 49.480469 112.382812 55.050781 109.246094 58.785156 C 106.109375 62.515625 100.542969 63 96.808594 59.863281 C 93.078125 56.726562 92.59375 51.15625 95.730469 47.425781 C 98.867188 43.691406 104.433594 43.210938 108.167969 46.347656 " fill-opacity="1" fill-rule="nonzero"/><path fill="#eb2c27" d="M 118.4375 55.328125 C 118.546875 55.558594 118.523438 55.839844 118.347656 56.046875 C 118.171875 56.253906 117.898438 56.328125 117.65625 56.261719 L 117.59375 56.335938 L 115.644531 60.523438 L 113.378906 58.621094 L 117.167969 55.976562 L 117.230469 55.902344 C 117.121094 55.675781 117.144531 55.390625 117.320312 55.183594 C 117.496094 54.976562 117.769531 54.902344 118.011719 54.972656 L 121.207031 51.171875 L 118.910156 47.066406 L 120.015625 50.773438 L 117.390625 49.894531 L 113.273438 54.792969 C 113.839844 51.140625 112.542969 47.289062 109.511719 44.746094 C 106.535156 42.242188 102.601562 41.609375 99.144531 42.71875 L 103.160156 37.9375 L 99.941406 31.992188 L 115.675781 37.484375 L 123.800781 52.039062 L 121.773438 51.359375 L 118.4375 55.328125 " fill-opacity="1" fill-rule="nonzero"/><g clip-path="url(#82187cff38)"><path fill="#eb2c27" d="M 96.398438 127.96875 C 96.398438 127.96875 82.351562 124.113281 82.242188 98.574219 C 82.195312 87.679688 84.144531 78.972656 80.742188 63.1875 C 77.34375 47.398438 75.0625 37.179688 76.796875 27.800781 C 76.796875 27.800781 79.925781 48.691406 96.398438 58.558594 C 117.089844 70.957031 126.066406 84.417969 125.523438 100.476562 C 125.523438 100.476562 119.054688 84.464844 104.1875 80.285156 C 104.1875 80.285156 103.023438 125.25 130.964844 144.847656 C 130.964844 144.847656 107.128906 140.683594 91.769531 102.382812 C 91.769531 102.382812 89.59375 120.347656 96.398438 127.96875 " fill-opacity="1" fill-rule="nonzero"/></g><path fill="#080150" d="M 41.828125 46.347656 C 38.097656 49.480469 37.613281 55.050781 40.75 58.785156 C 43.886719 62.515625 49.453125 63 53.1875 59.863281 C 56.921875 56.726562 57.402344 51.15625 54.265625 47.425781 C 51.128906 43.691406 45.5625 43.210938 41.828125 46.347656 " fill-opacity="1" fill-rule="nonzero"/><path fill="#080150" d="M 31.558594 55.328125 C 31.449219 55.558594 31.476562 55.839844 31.648438 56.046875 C 31.824219 56.253906 32.097656 56.328125 32.34375 56.261719 L 32.40625 56.335938 L 34.355469 60.523438 L 36.621094 58.621094 L 32.828125 55.976562 L 32.765625 55.902344 C 32.875 55.675781 32.851562 55.390625 32.675781 55.183594 C 32.5 54.976562 32.230469 54.902344 31.984375 54.972656 L 28.789062 51.171875 L 31.085938 47.066406 L 29.980469 50.773438 L 32.609375 49.894531 L 36.722656 54.792969 C 36.160156 51.140625 37.457031 47.289062 40.484375 44.746094 C 43.464844 42.242188 47.398438 41.609375 50.851562 42.71875 L 46.835938 37.9375 L 50.054688 31.992188 L 34.320312 37.484375 L 26.199219 52.039062 L 28.226562 51.359375 L 31.558594 55.328125 " fill-opacity="1" fill-rule="nonzero"/><g clip-path="url(#b9be04b204)"><path fill="#080150" d="M 53.601562 127.96875 C 53.601562 127.96875 67.644531 124.113281 67.753906 98.574219 C 67.800781 87.679688 65.851562 78.972656 69.253906 63.1875 C 72.65625 47.398438 74.933594 37.179688 73.199219 27.800781 C 73.199219 27.800781 70.074219 48.691406 53.601562 58.558594 C 32.90625 70.957031 23.929688 84.417969 24.476562 100.476562 C 24.476562 100.476562 30.941406 84.464844 45.808594 80.285156 C 45.808594 80.285156 46.972656 125.25 19.03125 144.847656 C 19.03125 144.847656 42.867188 140.683594 58.226562 102.382812 C 58.226562 102.382812 60.40625 120.347656 53.601562 127.96875 " fill-opacity="1" fill-rule="nonzero"/></g><g clip-path="url(#5710abe9e1)"><path fill="#f6921e" d="M 74.621094 23.621094 L 74.941406 25.707031 L 75.222656 23.617188 C 75.773438 19.519531 78.960938 16.277344 83.046875 15.65625 L 85.132812 15.339844 L 83.042969 15.054688 C 78.945312 14.503906 75.703125 11.316406 75.082031 7.230469 L 74.761719 5.148438 L 74.480469 7.238281 C 73.929688 11.332031 70.742188 14.574219 66.65625 15.199219 L 64.570312 15.515625 L 66.660156 15.796875 C 70.757812 16.351562 74 19.535156 74.621094 23.621094 " fill-opacity="1" fill-rule="nonzero"/></g></svg>