<?xml version="1.0" standalone="no"?>
<!DOCTYPE svg PUBLIC "-//W3C//DTD SVG 20010904//EN"
 "http://www.w3.org/TR/2001/REC-SVG-20010904/DTD/svg10.dtd">
<svg version="1.0" xmlns="http://www.w3.org/2000/svg"
 width="404.000000pt" height="404.000000pt" viewBox="0 0 404.000000 404.000000"
 preserveAspectRatio="xMidYMid meet">
<metadata>
Created by potrace 1.16, written by Peter Selinger 2001-2019
</metadata>
<g transform="translate(0.000000,404.000000) scale(0.100000,-0.100000)"
fill="#000000" stroke="none">
<path d="M1710 3874 c-840 -125 -1494 -714 -1625 -1461 -19 -113 -20 -368 0
-488 49 -304 196 -596 423 -844 l83 -91 -40 -82 c-60 -121 -125 -203 -310
-387 l-165 -165 -4 -55 c-6 -65 12 -105 63 -140 l35 -23 302 5 c246 4 325 9
419 25 223 40 373 112 581 279 l67 53 123 -25 c200 -41 336 -50 512 -37 801
64 1478 542 1714 1212 67 193 76 253 77 505 0 252 -9 317 -66 490 -68 206
-175 391 -326 566 -109 126 -140 155 -265 252 -278 216 -625 360 -990 412
-133 19 -478 18 -608 -1z m686 -328 c331 -70 615 -215 842 -431 170 -161 284
-335 358 -550 158 -456 37 -952 -323 -1320 -79 -81 -251 -214 -350 -269 -159
-89 -357 -161 -539 -196 -273 -52 -503 -46 -797 22 -116 26 -142 21 -220 -49
-158 -143 -309 -230 -443 -257 -38 -8 -122 -16 -186 -18 l-117 -4 39 42 c182
197 308 474 258 567 -6 12 -59 69 -118 127 -203 199 -319 393 -386 649 -35
131 -44 371 -20 511 106 607 651 1087 1357 1195 67 10 156 13 309 10 183 -3
233 -7 336 -29z"/>
<path d="M1702 2996 c-32 -17 -260 -229 -261 -241 0 -5 25 -37 57 -70 31 -33
76 -82 99 -109 l42 -48 93 86 93 86 177 0 177 0 67 -77 66 -78 0 -110 1 -110
-188 -127 c-103 -70 -200 -139 -216 -154 -40 -38 -51 -102 -47 -269 l3 -140
158 -3 157 -3 0 113 1 113 201 136 c265 178 250 151 246 440 l-3 216 -38 49
c-90 116 -252 287 -283 300 -46 19 -568 20 -602 0z"/>
<path d="M1862 1338 l3 -153 158 -3 157 -3 0 156 0 155 -160 0 -161 0 3 -152z"/>
</g>
</svg>
